<svg width="827" height="586" viewBox="0 0 827 586" fill="none" xmlns="http://www.w3.org/2000/svg">
<mask id="mask0_1_2" style="mask-type:luminance" maskUnits="userSpaceOnUse" x="75" y="35" width="727" height="486">
<path d="M801.828 35H75V520.433H801.828V35Z" fill="white"/>
</mask>
<g mask="url(#mask0_1_2)">
<mask id="mask1_1_2" style="mask-type:luminance" maskUnits="userSpaceOnUse" x="-1192" y="35" width="1995" height="486">
<path d="M802.08 35H-1192V520.433H802.08V35Z" fill="white"/>
</mask>
<g mask="url(#mask1_1_2)">
<mask id="mask2_1_2" style="mask-type:luminance" maskUnits="userSpaceOnUse" x="73" y="36" width="730" height="484">
<path d="M802.078 36.1275H73.9227V519.306H802.078V36.1275Z" fill="white"/>
</mask>
<g mask="url(#mask2_1_2)">
<mask id="mask3_1_2" style="mask-type:luminance" maskUnits="userSpaceOnUse" x="73" y="36" width="730" height="484">
<path d="M802.078 36.1275H73.9227V519.306H802.078V36.1275Z" fill="white"/>
</mask>
<g mask="url(#mask3_1_2)">
<path d="M492.146 242.887H646.044C653.534 242.887 659.613 236.809 659.613 229.319C659.613 221.83 653.534 215.751 646.044 215.751H492.146C484.656 215.751 478.578 221.83 478.578 229.319C478.578 236.809 484.656 242.887 492.146 242.887Z" fill="url(#paint0_linear_1_2)"/>
<path d="M788.51 317.512H610.198C602.708 317.512 596.63 323.59 596.63 331.08C596.63 338.57 602.708 344.648 610.198 344.648H788.51C795.999 344.648 802.078 338.57 802.078 331.08C802.078 323.59 795.999 317.512 788.51 317.512Z" fill="url(#paint1_linear_1_2)"/>
<path d="M714.165 410.227H573.898C566.409 410.227 560.33 416.306 560.33 423.796C560.33 431.285 566.409 437.364 573.898 437.364H714.165C721.655 437.364 727.734 431.285 727.734 423.796C727.734 416.306 721.655 410.227 714.165 410.227Z" fill="url(#paint2_linear_1_2)"/>
<path d="M492.146 159.217H733.631C741.121 159.217 747.199 153.148 747.199 145.649C747.199 138.151 741.121 132.081 733.631 132.081H492.146C484.656 132.081 478.578 138.151 478.578 145.649C478.578 153.148 484.656 159.217 492.146 159.217Z" fill="url(#paint3_linear_1_2)"/>
<path d="M315.381 247.781C324.373 247.781 331.662 240.491 331.662 231.499C331.662 222.507 324.373 215.217 315.381 215.217C306.389 215.217 299.099 222.507 299.099 231.499C299.099 240.491 306.389 247.781 315.381 247.781Z" fill="url(#paint4_linear_1_2)"/>
<path d="M573.681 301.456C573.681 293.967 567.603 287.888 560.113 287.888H452.319V49.6956C452.319 42.197 446.25 36.1275 438.751 36.1275H327.312C274.803 36.1275 231.358 75.2308 224.294 125.831H87.4908C79.9922 125.831 73.9227 131.9 73.9227 139.399V505.738C73.9227 513.227 79.9922 519.306 87.4908 519.306H329.455C336.954 519.306 343.024 513.227 343.024 505.738V461.262H430.113H438.76C440.126 461.262 441.41 460.999 442.65 460.628C515.954 454.242 573.681 392.616 573.681 317.684V301.456ZM315.887 492.161H101.059V152.958H223.172V236.393L150.42 264.687C145.255 266.704 141.836 271.643 141.763 277.179C141.7 282.705 145.002 287.734 150.112 289.86L223.172 320.298V447.684C223.172 455.174 229.241 461.252 236.74 461.252H315.887V492.161ZM223.172 265.51V290.909L191.649 277.775L223.172 265.51ZM546.545 317.684C546.545 324.585 545.831 331.315 544.673 337.9C544.546 337.9 544.419 337.864 544.284 337.864H381.34C373.841 337.864 367.772 343.943 367.772 351.432C367.772 358.922 373.841 365 381.34 365H536.396C533.664 371.115 530.48 376.985 526.781 382.494H421.04C413.541 382.494 407.472 388.573 407.472 396.062C407.472 403.552 413.541 409.63 421.04 409.63H501.291C481.581 424.926 456.932 434.125 430.113 434.125H331.717H250.308V311.253V245.673V140.258C250.308 97.799 284.853 63.2637 327.312 63.2637H425.192V287.888H331.717C324.218 287.888 318.149 293.967 318.149 301.456C318.149 308.946 324.218 315.024 331.717 315.024H546.545V317.684Z" fill="url(#paint5_linear_1_2)"/>
</g>
</g>
</g>
</g>
<defs>
<linearGradient id="paint0_linear_1_2" x1="569.096" y1="215.751" x2="569.096" y2="242.887" gradientUnits="userSpaceOnUse">
<stop stop-color="#75AEFF"/>
<stop offset="0.298611" stop-color="#1677FF"/>
</linearGradient>
<linearGradient id="paint1_linear_1_2" x1="699.354" y1="317.512" x2="699.354" y2="344.648" gradientUnits="userSpaceOnUse">
<stop stop-color="#75AEFF"/>
<stop offset="0.298611" stop-color="#1677FF"/>
</linearGradient>
<linearGradient id="paint2_linear_1_2" x1="644.032" y1="410.227" x2="644.032" y2="437.364" gradientUnits="userSpaceOnUse">
<stop stop-color="#75AEFF"/>
<stop offset="0.298611" stop-color="#1677FF"/>
</linearGradient>
<linearGradient id="paint3_linear_1_2" x1="612.889" y1="132.081" x2="612.889" y2="159.217" gradientUnits="userSpaceOnUse">
<stop stop-color="#75AEFF"/>
<stop offset="0.298611" stop-color="#1677FF"/>
</linearGradient>
<linearGradient id="paint4_linear_1_2" x1="315.381" y1="215.217" x2="315.381" y2="247.781" gradientUnits="userSpaceOnUse">
<stop stop-color="#75AEFF"/>
<stop offset="0.298611" stop-color="#1677FF"/>
</linearGradient>
<linearGradient id="paint5_linear_1_2" x1="323.802" y1="36.1275" x2="323.802" y2="519.306" gradientUnits="userSpaceOnUse">
<stop stop-color="#75AEFF"/>
<stop offset="0.298611" stop-color="#1677FF"/>
</linearGradient>
</defs>
</svg>
