<svg width="827" height="586" viewBox="0 0 827 586" fill="none" xmlns="http://www.w3.org/2000/svg">
<rect width="826.828" height="585.433" fill="white"/>
<g clip-path="url(#clip0_1_68)">
<rect width="726.828" height="485.433" transform="translate(50 50)" fill="white"/>
<g clip-path="url(#clip1_1_68)">
<g clip-path="url(#clip2_1_68)">
<g clip-path="url(#clip3_1_68)">
<path d="M466.896 257.887H620.794C628.284 257.887 634.363 251.809 634.363 244.319C634.363 236.83 628.284 230.751 620.794 230.751H466.896C459.406 230.751 453.328 236.83 453.328 244.319C453.328 251.809 459.406 257.887 466.896 257.887Z" fill="#0074D9"/>
<path d="M763.26 332.512H584.948C577.458 332.512 571.38 338.59 571.38 346.08C571.38 353.57 577.458 359.648 584.948 359.648H763.26C770.749 359.648 776.828 353.57 776.828 346.08C776.828 338.59 770.749 332.512 763.26 332.512Z" fill="#0074D9"/>
<path d="M688.915 425.227H548.648C541.159 425.227 535.08 431.306 535.08 438.796C535.08 446.285 541.159 452.364 548.648 452.364H688.915C696.405 452.364 702.484 446.285 702.484 438.796C702.484 431.306 696.405 425.227 688.915 425.227Z" fill="#0074D9"/>
<path d="M466.896 174.217H708.381C715.871 174.217 721.949 168.148 721.949 160.649C721.949 153.151 715.871 147.081 708.381 147.081H466.896C459.406 147.081 453.328 153.151 453.328 160.649C453.328 168.148 459.406 174.217 466.896 174.217Z" fill="#0074D9"/>
<path d="M290.131 262.781C299.123 262.781 306.412 255.491 306.412 246.499C306.412 237.507 299.123 230.217 290.131 230.217C281.139 230.217 273.849 237.507 273.849 246.499C273.849 255.491 281.139 262.781 290.131 262.781Z" fill="#0074D9"/>
<path d="M548.431 316.456C548.431 308.967 542.353 302.888 534.863 302.888H427.069V64.6956C427.069 57.197 421 51.1275 413.501 51.1275H302.062C249.553 51.1275 206.108 90.2308 199.044 140.831H62.2408C54.7422 140.831 48.6727 146.9 48.6727 154.399V520.738C48.6727 528.227 54.7422 534.306 62.2408 534.306H304.205C311.704 534.306 317.774 528.227 317.774 520.738V476.262H404.863H413.51C414.876 476.262 416.16 475.999 417.4 475.628C490.704 469.242 548.431 407.616 548.431 332.684V316.456ZM290.637 507.161H75.8089V167.958H197.922V251.393L125.17 279.687C120.005 281.704 116.586 286.643 116.513 292.179C116.45 297.705 119.752 302.734 124.862 304.86L197.922 335.298V462.684C197.922 470.174 203.991 476.252 211.49 476.252H290.637V507.161ZM197.922 280.51V305.909L166.399 292.775L197.922 280.51ZM521.295 332.684C521.295 339.585 520.581 346.315 519.423 352.9C519.296 352.9 519.169 352.864 519.034 352.864H356.09C348.591 352.864 342.522 358.943 342.522 366.432C342.522 373.922 348.591 380 356.09 380H511.146C508.414 386.115 505.23 391.985 501.531 397.494H395.79C388.291 397.494 382.222 403.573 382.222 411.062C382.222 418.552 388.291 424.63 395.79 424.63H476.041C456.331 439.926 431.682 449.125 404.863 449.125H306.467H225.058V326.253V260.673V155.258C225.058 112.799 259.603 78.2637 302.062 78.2637H399.942V302.888H306.467C298.968 302.888 292.899 308.967 292.899 316.456C292.899 323.946 298.968 330.024 306.467 330.024H521.295V332.684Z" fill="#0074D9"/>
</g>
</g>
</g>
</g>
<defs>
<clipPath id="clip0_1_68">
<rect width="726.828" height="485.433" fill="white" transform="translate(50 50)"/>
</clipPath>
<clipPath id="clip1_1_68">
<rect width="1994.08" height="485.433" fill="white" transform="translate(-1217.25 50)"/>
</clipPath>
<clipPath id="clip2_1_68">
<rect width="728.155" height="483.178" fill="white" transform="translate(48.6727 51.1275)"/>
</clipPath>
<clipPath id="clip3_1_68">
<rect width="728.155" height="483.178" fill="white" transform="translate(48.6727 51.1275)"/>
</clipPath>
</defs>
</svg>
